<svg preserveAspectRatio="none" width="100%" height="100%" overflow="visible" style="display: block;" viewBox="0 0 165 58" fill="none" xmlns="http://www.w3.org/2000/svg">
<g id="Frame 1430105562">
<g id="Union">
<path d="M79.0709 38.2574C79.2591 38.1396 79.4889 38.0876 79.7145 38.1202C80.0246 38.1585 80.2027 38.3465 80.2127 38.3576L81.9012 39.8804V39.8739L89.8632 47.0391C90.5154 47.4397 90.5634 47.8886 90.4694 48.2242C90.437 48.3904 90.3559 48.5454 90.2313 48.6773C90.2039 48.7113 90.1894 48.734 90.1894 48.734L85.4612 53.0235C85.4561 53.0198 85.4508 53.0163 85.4458 53.0126L84.1739 54.1607L83.9336 54.3829V54.3786L80.2127 57.7444C80.0228 57.9173 79.7954 57.9909 79.5735 57.9884C79.5337 57.9895 79.4939 57.9867 79.4522 57.9819L79.4434 57.9797C79.3216 57.9641 79.1919 57.9276 79.0599 57.8424C79.0599 57.8424 78.798 57.7605 78.6851 57.3544C78.655 57.2632 78.6388 57.1639 78.6388 57.0582V57.0429C78.6373 57.0121 78.6322 56.9803 78.6322 56.9471V51.8471C78.6333 51.8833 78.6365 51.9264 78.6388 51.9756V51.7186L78.6256 51.7295L71.9686 57.7444C71.9647 57.7479 71.9593 57.7497 71.9554 57.7531L71.9091 57.7967C71.9091 57.7967 71.8881 57.8106 71.8584 57.8294C71.8526 57.8333 71.8465 57.8365 71.8407 57.8403C71.8321 57.8455 71.8222 57.8498 71.8121 57.8555C71.7296 57.905 71.6446 57.941 71.5564 57.9623C71.3824 58.0115 71.1625 58.0281 70.9414 57.9143C70.923 57.907 70.7037 57.8134 70.5468 57.5658C70.4532 57.424 70.3947 57.2528 70.3947 57.0582C70.3936 57.0368 70.3881 57.0152 70.3881 56.9928V39.0504C70.3881 39.0504 70.3894 39.0125 70.3991 38.9567C70.4654 38.2041 71.3838 37.8316 71.9686 38.3576L78.6388 44.3835V39.8804H78.6322V39.0439C78.6323 38.5384 78.9614 38.3171 79.0709 38.2574Z" fill="var(--fill-0, white)"/>
<path d="M48.9357 0.000161222C49.6324 -0.00709381 50.3342 0.230502 50.7609 0.714721L51.3671 1.40532C56.7443 7.44294 60.44 11.1629 52.9718 21.2322C53.0566 21.1623 53.1019 21.1276 53.1019 21.1276H53.1085L52.3634 22.0273C52.0159 22.4762 51.652 22.941 51.2613 23.4151L22.9359 57.9274H0L47.1326 0.753934C47.5396 0.259649 48.2321 0.00740761 48.9291 0.000161222H48.9357Z" fill="var(--fill-0, white)"/>
<path d="M73.5359 2.51855C74.8956 1.07206 77.7843 1.00414 79.2737 2.34862C79.2004 2.24962 79.1621 2.19582 79.1591 2.19177L79.4544 2.52944C79.4748 2.55133 79.4987 2.57009 79.5184 2.59262L128 57.9143H127.989L128 57.9209H104.789L80.7925 30.3624C80.6247 30.1703 80.4296 30.0044 80.2193 29.8548C79.9367 29.6811 79.4078 29.3913 78.7336 29.2012C77.656 28.947 76.453 29.0423 75.4757 29.4866C74.9843 29.7455 74.4915 30.1253 74.0164 30.6652L51.9623 57.9143L51.96 57.9122L51.9556 57.9209L45.691 50.4376C45.4537 50.1819 44.9635 49.6453 44.4455 49.0107C41.3382 45.8762 41.1823 40.791 44.6792 37.4949L73.5844 2.4423C73.5844 2.4423 73.5671 2.46766 73.5359 2.51855Z" fill="var(--fill-0, white)"/>
<path d="M37.8304 47.1589C37.8792 47.1631 37.9274 47.1715 37.9759 47.1785C38.1378 47.1964 38.4916 47.2551 38.9083 47.4944C38.9083 47.4944 39.003 47.5565 39.1177 47.6404C39.1433 47.6591 39.1677 47.6794 39.1927 47.6992C39.221 47.7214 39.2486 47.7449 39.2764 47.7689C39.2839 47.7753 39.2911 47.782 39.2985 47.7885C39.3315 47.8171 39.3677 47.8406 39.3955 47.8691L39.4682 47.9541C39.4728 47.9592 39.4791 47.9642 39.4836 47.9693L39.4947 47.9824C39.5168 48.0067 39.5416 48.0289 39.563 48.0543L39.854 48.3985L40.156 48.7471L47.9063 57.9143H30.2321C30.2121 57.9115 29.3235 57.7808 29.0528 56.9993C29.0528 56.9993 28.7255 56.3468 29.1454 55.7075L29.1829 55.6617C29.2193 55.6053 29.2607 55.5498 29.3063 55.4962L33.9817 50.0084L35.6481 48.0477C35.6514 48.0436 35.7361 47.9401 35.8928 47.8038C35.906 47.7921 35.9197 47.7794 35.9347 47.7667C35.9543 47.7503 35.9749 47.7336 35.9964 47.7166C36.102 47.6312 36.2119 47.554 36.3271 47.4879C36.3889 47.4513 36.4572 47.4197 36.5277 47.3855C36.5398 47.3799 36.5507 47.3713 36.5629 47.3659C36.9033 47.2071 37.3346 47.0929 37.8304 47.1589Z" fill="var(--fill-0, white)"/>
<path d="M78.6322 51.8471C78.6304 51.7878 78.6258 51.7473 78.6256 51.7295L78.6322 51.7251V51.8471Z" fill="var(--fill-0, white)"/>
</g>
</g>
</svg>
