<svg preserveAspectRatio="none" width="100%" height="100%" overflow="visible" style="display: block;" viewBox="0 0 42 24" fill="none" xmlns="http://www.w3.org/2000/svg">
<g id="Component 25">
<g id="Union">
<path d="M25.7097 14.927C25.7685 14.8897 25.8403 14.8733 25.9108 14.8836C26.0077 14.8957 26.0633 14.9552 26.0665 14.9587L26.5941 15.4402V15.4381L29.0822 17.7037C29.286 17.8304 29.3011 17.9723 29.2717 18.0785C29.2616 18.131 29.2362 18.18 29.1973 18.2217C29.1887 18.2325 29.1842 18.2396 29.1842 18.2396L27.7066 19.596C27.705 19.5948 27.7034 19.5937 27.7018 19.5925L27.3043 19.9556L27.2292 20.0258V20.0245L26.0665 21.0887C26.0071 21.1434 25.9361 21.1667 25.8667 21.1659C25.8543 21.1662 25.8418 21.1653 25.8288 21.1638L25.8261 21.1631C25.788 21.1582 25.7475 21.1466 25.7062 21.1197C25.7062 21.1197 25.6244 21.0938 25.5891 20.9654C25.5797 20.9366 25.5746 20.9052 25.5746 20.8717V20.8669C25.5742 20.8572 25.5726 20.8471 25.5726 20.8366V19.224C25.5729 19.2355 25.5739 19.2491 25.5746 19.2647V19.1834L25.5705 19.1868L23.4902 21.0887C23.489 21.0898 23.4873 21.0904 23.4861 21.0915L23.4716 21.1053C23.4716 21.1053 23.465 21.1097 23.4557 21.1156C23.4539 21.1168 23.452 21.1178 23.4502 21.119C23.4475 21.1207 23.4444 21.1221 23.4413 21.1239C23.4155 21.1395 23.3889 21.1509 23.3614 21.1576C23.307 21.1732 23.2383 21.1784 23.1692 21.1425C23.1634 21.1401 23.0949 21.1106 23.0459 21.0322C23.0166 20.9874 22.9983 20.9333 22.9983 20.8717C22.998 20.865 22.9963 20.8581 22.9963 20.8511V15.1777C22.9963 15.1777 22.9967 15.1657 22.9997 15.1481C23.0204 14.9101 23.3074 14.7924 23.4902 14.9587L25.5746 16.864V15.4402H25.5726V15.1757C25.5726 15.0158 25.6754 14.9459 25.7097 14.927Z" fill="var(--fill-0, #DBDBDE)"/>
<path d="M16.2924 2.83013C16.5101 2.82784 16.7294 2.90296 16.8628 3.05607L17.0522 3.27444C18.7326 5.18352 19.8875 6.35975 17.5537 9.54364C17.5802 9.52155 17.5943 9.51057 17.5943 9.51057H17.5964L17.3636 9.79507C17.255 9.93701 17.1413 10.084 17.0192 10.2339L8.16746 21.1466H1L15.7289 3.06847C15.8561 2.91218 16.0725 2.83242 16.2903 2.83013H16.2924Z" fill="var(--fill-0, #DBDBDE)"/>
<path d="M23.98 3.62644C24.4049 3.16906 25.3076 3.14759 25.773 3.57271C25.7501 3.5414 25.7382 3.52439 25.7372 3.52311L25.8295 3.62988C25.8359 3.6368 25.8433 3.64274 25.8495 3.64986L41 21.1425H40.9966L41 21.1445H33.7464L26.2476 12.4306C26.1952 12.3699 26.1342 12.3174 26.0685 12.2701C25.9802 12.2152 25.8149 12.1235 25.6043 12.0634C25.2675 11.983 24.8916 12.0132 24.5861 12.1537C24.4326 12.2355 24.2786 12.3556 24.1301 12.5263L17.2382 21.1425L17.2375 21.1418L17.2361 21.1445L15.2784 18.7783C15.2043 18.6975 15.0511 18.5278 14.8892 18.3271C13.9182 17.336 13.8695 15.7281 14.9623 14.6859L23.9951 3.60233C23.9951 3.60233 23.9897 3.61035 23.98 3.62644Z" fill="var(--fill-0, #DBDBDE)"/>
<path d="M12.822 17.7416C12.8372 17.743 12.8523 17.7456 12.8675 17.7478C12.9181 17.7535 13.0286 17.772 13.1588 17.8477C13.1588 17.8477 13.1884 17.8673 13.2243 17.8938C13.2323 17.8998 13.2399 17.9062 13.2477 17.9124C13.2566 17.9195 13.2652 17.9269 13.2739 17.9345C13.2762 17.9365 13.2785 17.9386 13.2808 17.9407C13.2911 17.9497 13.3024 17.9572 13.3111 17.9662L13.3338 17.993C13.3353 17.9947 13.3372 17.9962 13.3386 17.9979L13.3421 18.002C13.349 18.0097 13.3567 18.0167 13.3634 18.0247L13.4544 18.1336L13.5487 18.2438L15.9707 21.1425H10.4475C10.4413 21.1416 10.1636 21.1002 10.079 20.8531C10.079 20.8531 9.97672 20.6468 10.1079 20.4447L10.1197 20.4302C10.131 20.4123 10.144 20.3948 10.1582 20.3778L11.6193 18.6426L12.14 18.0227C12.1411 18.0214 12.1675 17.9886 12.2165 17.9455C12.2206 17.9418 12.2249 17.9378 12.2296 17.9338C12.2357 17.9286 12.2421 17.9233 12.2489 17.918C12.2819 17.8909 12.3162 17.8665 12.3522 17.8456C12.3715 17.8341 12.3929 17.8241 12.4149 17.8133C12.4187 17.8115 12.4221 17.8088 12.4259 17.8071C12.5323 17.7568 12.667 17.7208 12.822 17.7416Z" fill="var(--fill-0, #DBDBDE)"/>
<path d="M25.5726 19.224C25.572 19.2052 25.5705 19.1924 25.5705 19.1868L25.5726 19.1854V19.224Z" fill="var(--fill-0, #DBDBDE)"/>
</g>
</g>
</svg>
