<svg width="57" height="26" viewBox="0 0 57 26" fill="none" xmlns="http://www.w3.org/2000/svg">
  <path d="M35.0303 17.1495C35.1137 17.0967 35.2155 17.0734 35.3154 17.088C35.4528 17.1051 35.5317 17.1894 35.5361 17.1944L36.2842 17.877V17.8741L39.8115 21.086C40.1004 21.2656 40.1217 21.4668 40.0801 21.6173C40.0657 21.6917 40.0298 21.7613 39.9746 21.8204C39.9625 21.8356 39.9561 21.8458 39.9561 21.8458L37.8613 23.7686C37.8591 23.767 37.8567 23.7654 37.8545 23.7637L37.291 24.2784L37.1846 24.378V24.376L35.5361 25.8848C35.452 25.9623 35.3512 25.9954 35.2529 25.9942C35.2353 25.9947 35.2177 25.9935 35.1992 25.9913L35.1953 25.9903C35.1413 25.9833 35.0839 25.9669 35.0254 25.9288C35.0254 25.9288 34.9094 25.8921 34.8594 25.71C34.846 25.6691 34.8389 25.6246 34.8389 25.5772V25.5704C34.8382 25.5566 34.8359 25.5423 34.8359 25.5274V23.2413C34.8364 23.2575 34.8378 23.2768 34.8389 23.2989V23.1837L34.833 23.1885L31.8838 25.8848C31.8821 25.8864 31.8797 25.8872 31.8779 25.8887L31.8574 25.9083C31.8574 25.9083 31.8481 25.9145 31.835 25.9229C31.8324 25.9247 31.8297 25.9261 31.8271 25.9278C31.8233 25.9301 31.8189 25.9321 31.8145 25.9346C31.7779 25.9568 31.7402 25.973 31.7012 25.9825C31.6241 26.0046 31.5267 26.012 31.4287 25.961C31.4206 25.9577 31.3234 25.9158 31.2539 25.8048C31.2124 25.7412 31.1865 25.6645 31.1865 25.5772C31.1861 25.5676 31.1836 25.5579 31.1836 25.5479V17.505C31.1836 17.505 31.1842 17.488 31.1885 17.463C31.2179 17.1256 31.6247 16.9586 31.8838 17.1944L34.8389 19.8956V17.877H34.8359V17.502C34.836 17.2754 34.9818 17.1763 35.0303 17.1495Z" fill="#262626"/>
  <path d="M21.6797 7.22701e-05C21.9883 -0.00317991 22.2992 0.103326 22.4883 0.320385L22.7568 0.629955C25.1391 3.33642 26.7764 5.00393 23.4678 9.51765C23.5053 9.48633 23.5254 9.47078 23.5254 9.47078H23.5283L23.1982 9.8741C23.0443 10.0753 22.8831 10.2837 22.71 10.4962L10.1611 25.9669H0L20.8809 0.337963C21.0612 0.116392 21.368 0.00332058 21.6768 7.22701e-05H21.6797Z" fill="#262626"/>
  <path d="M32.5781 1.12898C33.1805 0.480568 34.4603 0.450124 35.1201 1.05281C35.0877 1.00843 35.0707 0.984313 35.0693 0.982494L35.2002 1.13386C35.2092 1.14368 35.2198 1.15208 35.2285 1.16218L56.707 25.961H56.7021L56.707 25.9639H46.4238L35.793 13.6104C35.7187 13.5243 35.6322 13.4499 35.5391 13.3829C35.4139 13.305 35.1796 13.1751 34.8809 13.0899C34.4035 12.9759 33.8705 13.0187 33.4375 13.2178C33.2198 13.3339 33.0015 13.5041 32.791 13.7462L23.0205 25.961L23.0195 25.96L23.0176 25.9639L20.2422 22.6094C20.1371 22.4948 19.9199 22.2543 19.6904 21.9698C18.3138 20.5647 18.2447 18.2852 19.7939 16.8077L32.5996 1.0948C32.5996 1.0948 32.592 1.10617 32.5781 1.12898Z" fill="#262626"/>
  <path d="M16.7598 21.1397C16.7814 21.1416 16.8027 21.1454 16.8242 21.1485C16.8959 21.1565 17.0527 21.1828 17.2373 21.2901C17.2373 21.2901 17.2793 21.3179 17.3301 21.3555C17.3414 21.3639 17.3522 21.373 17.3633 21.3819C17.3758 21.3919 17.3881 21.4024 17.4004 21.4132C17.4037 21.416 17.4069 21.419 17.4102 21.4219C17.4248 21.4348 17.4408 21.4453 17.4531 21.4581L17.4854 21.4962C17.4874 21.4985 17.4902 21.5007 17.4922 21.503L17.4971 21.5089C17.5069 21.5197 17.5178 21.5297 17.5273 21.5411L17.6562 21.6954L17.79 21.8516L21.2236 25.961H13.3936C13.3847 25.9597 12.991 25.9012 12.8711 25.5509C12.8711 25.5509 12.7261 25.2583 12.9121 24.9718L12.9287 24.9512C12.9448 24.9259 12.9632 24.9011 12.9834 24.877L15.0547 22.4171L15.793 21.5382C15.7944 21.5363 15.8319 21.4899 15.9014 21.4288C15.9072 21.4235 15.9133 21.4179 15.9199 21.4122C15.9286 21.4048 15.9377 21.3973 15.9473 21.3897C15.9941 21.3514 16.0427 21.3168 16.0938 21.2872C16.1211 21.2708 16.1514 21.2566 16.1826 21.2413C16.188 21.2388 16.1928 21.2349 16.1982 21.2325C16.349 21.1613 16.5401 21.1101 16.7598 21.1397Z" fill="#262626"/>
  <path d="M34.8359 23.2413C34.8351 23.2147 34.8331 23.1965 34.833 23.1885L34.8359 23.1866V23.2413Z" fill="#262626"/>
</svg>
